<?xml version="1.0" standalone="no"?>
<!DOCTYPE svg PUBLIC "-//W3C//DTD SVG 20010904//EN"
 "http://www.w3.org/TR/2001/REC-SVG-20010904/DTD/svg10.dtd">
<svg version="1.0" xmlns="http://www.w3.org/2000/svg"
 width="260.000000pt" height="260.000000pt" viewBox="0 0 260.000000 260.000000"
 preserveAspectRatio="xMidYMid meet">
<metadata>
Created by potrace 1.14, written by Peter Selinger 2001-2017
</metadata>
<g transform="translate(0.000000,260.000000) scale(0.100000,-0.100000)"
fill="#000000" stroke="none">
<path d="M1175 2594 c-122 -18 -172 -28 -259 -55 -204 -63 -374 -166 -531
-324 -158 -157 -261 -327 -324 -531 -46 -150 -55 -215 -55 -384 0 -169 9 -234
55 -384 63 -204 166 -374 324 -531 157 -158 327 -261 531 -324 150 -46 215
-55 384 -55 169 0 234 9 384 55 204 63 374 166 531 324 158 157 261 327 324
531 46 150 55 215 55 384 0 169 -9 234 -55 384 -63 204 -166 374 -324 531
-189 190 -409 308 -670 361 -71 14 -315 26 -370 18z m265 -179 c91 -9 180 -32
288 -76 328 -133 583 -429 666 -774 24 -100 34 -249 25 -363 -40 -478 -388
-883 -854 -996 -155 -37 -375 -37 -530 0 -403 97 -732 426 -829 829 -37 155
-37 375 0 530 83 345 338 641 666 774 115 47 209 70 324 80 88 8 114 8 244 -4z"/>
<path d="M1228 2131 l-33 -29 -3 -444 c-3 -400 -2 -446 14 -475 19 -36 13 -33
323 -168 244 -106 264 -110 314 -60 43 44 39 114 -9 156 -11 9 -110 56 -221
104 l-202 88 -3 399 -3 400 -33 29 c-45 40 -99 40 -144 0z"/>
</g>
</svg>
